<?xml version="1.0" encoding="utf-8"?>
<svg version="1.1" id="Layer_1" xmlns="http://www.w3.org/2000/svg" xmlns:xlink="http://www.w3.org/1999/xlink" x="0px" y="0px"
	 viewBox="132.066 -29.4916 2295.8679 1658.9833" enable-background="new 132.066 -29.4916 2295.8679 1658.9833"
	 xml:space="preserve">
<g>
	<g>
		<radialGradient id="SVGID_1_" cx="1144.6727" cy="1531.974" r="530.9092" gradientUnits="userSpaceOnUse">
			<stop  offset="0" style="stop-color:#FFFFFF"/>
			<stop  offset="0.1702" style="stop-color:#D1C6E9"/>
			<stop  offset="0.3969" style="stop-color:#9880CD"/>
			<stop  offset="0.6015" style="stop-color:#6B49B8"/>
			<stop  offset="0.7765" style="stop-color:#4B21A8"/>
			<stop  offset="0.9151" style="stop-color:#37099F"/>
			<stop  offset="1" style="stop-color:#30009B"/>
		</radialGradient>
		<path fill="url(#SVGID_1_)" d="M1391.5649,747.2455c-2-8-5-15-7-23l-3-7c-1-3-3-5-5-7c-12-7-22-16-31-26c-12-14-23-29-31-46
			c-1-2-3-3-5-3h-6c-2,0-3,2-4,3c0,2-1,3-1,3c-6,21-13,36-25,54c-14,21-33,40-53,55c-26,20-56,35-87,47
			c-64,24-131.9999,35-198.9999,43c-107,11-214,12-320,18c-46,2-92,5-137,11c-49,6-98,15-144,34c-32,13-64,33-85,62
			c-11,16-19,34-23,53c-7,29.0001-7,60.0001-1,89.0001c6,33,20,65,39,92c27,40,63,73,101,101s79,52,121,74c79,40,162,71,246,98
			c100,31,202,56,304.9999,75c50,10,101,18,153,20l0,0c13,0,26,2,38-2c3-2,1-7-2-9c-60-46-120-95-173-150
			c-28.9999-31-55.9999-63-75.9999-100c-9-19-17-40-20-61c-2-21,1-43,11-62c10-21,25-38,42-53c15.9999-14,32.9999-26,49.9999-37
			c54-34,111-60,166-91.0001c40-23,79-48,112-80c25-24,45-53,54-86C1399.5649,807.2455,1398.5649,776.2455,1391.5649,747.2455z"/>
		<radialGradient id="SVGID_2_" cx="841.2615" cy="1435.7278" r="476.3347" gradientUnits="userSpaceOnUse">
			<stop  offset="0" style="stop-color:#FFFFFF"/>
			<stop  offset="0.0047" style="stop-color:#FDFDFE"/>
			<stop  offset="0.149" style="stop-color:#C9C8E1"/>
			<stop  offset="0.295" style="stop-color:#9B9AC8"/>
			<stop  offset="0.4399" style="stop-color:#7674B4"/>
			<stop  offset="0.5835" style="stop-color:#5A57A4"/>
			<stop  offset="0.7255" style="stop-color:#454399"/>
			<stop  offset="0.8652" style="stop-color:#393692"/>
			<stop  offset="1" style="stop-color:#353290"/>
		</radialGradient>
		<path fill="url(#SVGID_2_)" d="M1342.5649,742.2455c-10-8-20-16-29-26c-1,1-2,2-3,4c-17,25-38,48-63,66c-29,23-63,40-98,53
			c-67,26-138.9999,38-210.9999,45c-107,12-214,13-322,19c-44,2-89,5-133,11c-45,5-91,14-133,31c-24,10-50,24-66,46
			c-7,11-12,23-15,36.0001c-5,23-6,48-1,72c5,27,17,52,32,75c24,35,57,65,90,90c36,27,75,50,115,70c77,39,158,69,240,95
			c98,30,198,55,298.9999,74c19,3,37,6,55,9c-28-24-54-49-79.9999-75c-32-34-61-69-83-111c-12-23-21-49-24-76c-4-29,1-60,14-87
			c13-26,32-48,54-67c17-15,36-29,54.9999-41c54-34.0001,112-61.0001,168-93.0001c36-20,73-43,103-72c19-18,35-41,42-66
			c6-22,4-45-1-66v-1l0,0C1346.5649,752.2455,1344.5649,747.2455,1342.5649,742.2455z"/>
		<radialGradient id="SVGID_3_" cx="635.4913" cy="1322.7313" r="419.763" gradientUnits="userSpaceOnUse">
			<stop  offset="0" style="stop-color:#FFFFFF"/>
			<stop  offset="0.1102" style="stop-color:#CBE2F0"/>
			<stop  offset="0.239" style="stop-color:#96C5E1"/>
			<stop  offset="0.3696" style="stop-color:#68ABD3"/>
			<stop  offset="0.4992" style="stop-color:#4396C8"/>
			<stop  offset="0.6276" style="stop-color:#2586C0"/>
			<stop  offset="0.7546" style="stop-color:#117ABA"/>
			<stop  offset="0.8795" style="stop-color:#0473B6"/>
			<stop  offset="1" style="stop-color:#0071B5"/>
		</radialGradient>
		<path fill="url(#SVGID_3_)" d="M1306.5649,794.2455c-10,10-20,19-31,28c-34,25-71,44-110,59c-71,27-145.9999,40-221.9999,48
			c-108,12-216,13-325,19c-43,2-86,5-130,10c-40,6-83,13-121,28c-16,7-36,17-46,32c-4,5-7,12.0001-8,18.0001c-4,18-4,37-1,54
			c4,21,14,41,26,59c21,31,50,57,79,79c34,25,71,47,108,66c75,37,153,67,233,92c67,21,135,39,203,54c-25-29-47-59-65-93
			c-15-29-25-59-29-92c-4-38,2-77,19-112c15-31,38-58,64-81c19-17,40-31,61-45.0001c54.9999-35,113.9999-62,169.9999-94
			c32-18,66-39,94-65c12-13,25-29,29-46C1306.5649,807.2455,1306.5649,801.2455,1306.5649,794.2455z"/>
		<radialGradient id="SVGID_4_" cx="541.3618" cy="1223.2375" r="271.2304" gradientUnits="userSpaceOnUse">
			<stop  offset="0" style="stop-color:#FFFFFF"/>
			<stop  offset="0.1102" style="stop-color:#CBF2D8"/>
			<stop  offset="0.239" style="stop-color:#96E4AF"/>
			<stop  offset="0.3696" style="stop-color:#68D88C"/>
			<stop  offset="0.4992" style="stop-color:#43CE70"/>
			<stop  offset="0.6276" style="stop-color:#25C759"/>
			<stop  offset="0.7546" style="stop-color:#11C14A"/>
			<stop  offset="0.8795" style="stop-color:#04BE40"/>
			<stop  offset="1" style="stop-color:#00BD3D"/>
		</radialGradient>
		<path fill="url(#SVGID_4_)" d="M1008.565,966.2455c-20,3-40,6-60,8c-109,12-218,13-327,19c-43,2-85,5-127,10
			c-36,5-76,11-110,25.0001c-6,3-22,10-26,16c-1,0-1,1-1,2c-3,12-3,24-1,36c3,15,10,29,19,41c18,27,44,50,69,69c32,24,66,44,102,62
			c72,36,148,65,226,89c28,9,56,17,84,25c-17-34-29-70-34-107c-5-47,3-95,23-138c19-36,45-68,75-95
			c21-18.0001,44-34.0001,67-49.0001C994.565,975.2455,1001.565,970.2455,1008.565,966.2455z"/>
		<radialGradient id="SVGID_5_" cx="519.559" cy="1158.2406" r="188.3308" gradientUnits="userSpaceOnUse">
			<stop  offset="0" style="stop-color:#FFFFFF"/>
			<stop  offset="0.1403" style="stop-color:#FDF4CC"/>
			<stop  offset="0.286" style="stop-color:#FCEA9F"/>
			<stop  offset="0.4327" style="stop-color:#FAE279"/>
			<stop  offset="0.5781" style="stop-color:#F9DC5C"/>
			<stop  offset="0.722" style="stop-color:#F9D848"/>
			<stop  offset="0.8635" style="stop-color:#F8D53B"/>
			<stop  offset="1" style="stop-color:#F8D437"/>
		</radialGradient>
		<path fill="url(#SVGID_5_)" d="M858.565,1027.2456c-78,5-157,7-235,11c-41,2-82,4-123,10c-33,4-69,9-99,22h-1c0,1,0,2,0,3
			c2,9,7,18,12,25c15,22,38,42,59,58c30,22,62,41,95,57c70,36,143,63,217,86c-2-11-4-22-5-33c-7-56,2-112,27-163
			C819.565,1075.2456,837.565,1050.2456,858.565,1027.2456z"/>
		<radialGradient id="SVGID_6_" cx="507.0605" cy="1106.243" r="191.009" gradientUnits="userSpaceOnUse">
			<stop  offset="0" style="stop-color:#FFFFFF"/>
			<stop  offset="0.0483" style="stop-color:#FDF4EA"/>
			<stop  offset="0.1764" style="stop-color:#F9D9B9"/>
			<stop  offset="0.3078" style="stop-color:#F6C18F"/>
			<stop  offset="0.4404" style="stop-color:#F3AE6D"/>
			<stop  offset="0.5746" style="stop-color:#F1A052"/>
			<stop  offset="0.711" style="stop-color:#EF953F"/>
			<stop  offset="0.851" style="stop-color:#EE8F34"/>
			<stop  offset="1" style="stop-color:#EE8D30"/>
		</radialGradient>
		<path fill="url(#SVGID_6_)" d="M768.565,1076.2456c-47,2-95,4-143,7c-40,2-80,4-119,9c-11,2-23,3-35,5c9,9,18,16,27,23
			c28,20,58,38,88,53c47,24,95,44,145,61c-1-52,11-103,34-150C766.565,1081.2456,767.565,1079.2456,768.565,1076.2456z"/>
		<radialGradient id="SVGID_7_" cx="608.565" cy="1130.2456" r="58.1188" gradientUnits="userSpaceOnUse">
			<stop  offset="0" style="stop-color:#FFFFFF"/>
			<stop  offset="0.0546" style="stop-color:#FDE8E8"/>
			<stop  offset="0.1819" style="stop-color:#F8B6B7"/>
			<stop  offset="0.3125" style="stop-color:#F48C8D"/>
			<stop  offset="0.4442" style="stop-color:#F16A6B"/>
			<stop  offset="0.5775" style="stop-color:#EE4F50"/>
			<stop  offset="0.713" style="stop-color:#EC3C3D"/>
			<stop  offset="0.852" style="stop-color:#EB3132"/>
			<stop  offset="1" style="stop-color:#EB2D2E"/>
		</radialGradient>
		<path fill="url(#SVGID_7_)" d="M701.565,1124.2456c-25,1-49,2-73,4c-10,0-19,1-29,1c3,1,5,3,8,4c27,14,55,26,83,38
			C693.565,1155.2456,696.565,1140.2456,701.565,1124.2456z"/>
	</g>
	<g>
		<path fill="#BD9B74" stroke="#BD9B74" stroke-width="0.094" d="M2291.3042,41.8786c6.1948-5.3115,13.9751-9.0827,22.2424-9.3319
			c9.7734-0.521,20.1926,3.8732,25.4133,12.3896c3.3975,5.1189,3.7827,11.6988,2.5596,17.5765
			c-2.5369,9.1733-10.1021,15.7985-17.8372,20.7589c-68.9243,45.8778-133.4431,98.3243-192.6733,156.1614
			c-29.479,28.2674-57.5085,57.9957-85.9911,87.2597c-31.5177,32.6389-63.2845,65.1984-98.1432,94.3378
			c-28.4939,23.9299-59.0941,45.4248-91.6198,63.5337c-32.4237,17.9163-66.4668,33.0465-101.6764,44.5981
			c0.0906-2.5482,0.0338-5.1076-0.204-7.6331c19.23-7.6218,38.7885-14.5301,57.5088-23.4429
			c39.6604-17.9955,77.0784-40.8608,111.4952-67.554c32.1859-24.8586,61.6311-53.024,90.3062-81.8123
			c28.0862-28.9016,55.957-58.0296,84.168-86.818c28.1086-28.1655,56.8179-55.742,86.8518-81.835
			c41.8577-36.478,86.1272-70.1815,132.1975-101.1668c6.1382-4.2016,13.1597-8.1427,16.6025-15.0737
			c2.5369-4.7339,2.5029-10.8041-0.668-15.2322c-4.9038-7.282-14.8245-9.5697-23.0015-7.4632
			c-7.6104,2.0159-13.386,7.7124-19.343,12.5255c-64.032,52.5257-134.1228,97.4862-207.7698,135.2779
			c-40.9628,21.2685-82.9674,40.4305-124.8589,59.7737c-36.614,16.8177-73.1487,33.9412-108.3242,53.6129
			c-33.5676,18.9242-65.7874,40.5437-94.4058,66.4329c-23.6241,21.0307-44.5981,44.9718-62.8768,70.7591
			c-3.2277,4.7565-7.1349,9.1846-9.0487,14.7c-3.0692-0.6116-6.1609-1.0193-9.2527-1.3703
			c20.3059-32.5936,45.3909-62.2199,73.7035-88.143c31.9368-29.2187,68.3242-53.1938,106.2859-73.8395
			c38.358-21.0646,78.3016-39.0262,117.9958-57.3954c41.5404-19.1733,83.0807-38.4486,123.3868-60.1361
			C2164.2029,136.3297,2230.5,92.445,2291.3042,41.8786z"/>
		<path fill="#8F5444" stroke="#8F5444" stroke-width="0.094" d="M2308.8352,41.1311c8.177-2.1065,18.0977,0.1812,23.0015,7.4632
			c3.1709,4.4281,3.2048,10.4983,0.668,15.2322c-3.4429,6.9309-10.4644,10.8721-16.6025,15.0737
			c-46.0703,30.9854-90.3398,64.6888-132.1975,101.1668c-30.0339,26.093-58.7432,53.6695-86.8518,81.835
			c-28.2109,28.7883-56.0818,57.9164-84.168,86.818c-28.675,28.7884-58.1202,56.9538-90.3062,81.8123
			c-34.4169,26.6932-71.8348,49.5585-111.4952,67.554c-18.7203,8.9128-38.2788,15.8211-57.5088,23.4429
			c-6.5686-20.0794-19.4111-38.0636-36.7498-50.204c-10.5551-7.2707-21.9594-13.8053-34.4169-17.1122
			c1.9138-5.5153,5.821-9.9434,9.0487-14.7c18.2787-25.7872,39.2527-49.7284,62.8768-70.7591
			c28.6184-25.8891,60.8381-47.5087,94.4058-66.4329c35.1755-19.6716,71.7102-36.7952,108.3242-53.6129
			c41.8915-19.3432,83.8961-38.5052,124.8589-59.7737c73.647-37.7918,143.7378-82.7523,207.7698-135.278
			C2295.4492,48.8435,2301.2249,43.147,2308.8352,41.1311 M2303.739,45.1968c-4.1111,3.0464-7.4519,6.9649-11.2571,10.3398
			c-54.7114,50.691-119.1284,89.3548-184.4172,124.723c-75.493,40.7929-153.5455,76.6254-228.925,117.6335
			c-38.6187,21.1552-76.6595,43.7261-111.4501,70.8383c-28.9583,22.888-56.3876,49.2414-73.8169,82.186
			c11.5743,3.4315,21.212,10.8268,31.2799,17.1235c38.6411-48.8564,85.8101-90.3061,135.7311-127.2825
			c71.8574-53.1372,149.6493-97.4069,226.6598-142.4694c75.5947-44.1111,151.5295-88.5734,219.6157-143.919
			c3.1938-2.9445,7.8711-5.8437,7.3501-10.8268C2310.9758,41.4935,2306.7515,42.9431,2303.739,45.1968 M2307.8613,66.3407
			c-20.906,14.3489-41.1099,29.6943-60.9175,45.5154c-64.5076,51.7442-124.689,108.5282-186.218,163.6699
			c-64.9154,57.8484-131.3369,114.9042-206.071,159.842c-35.5493,21.495-73.2279,39.4112-112.4126,53.1938
			c1.4608,2.6614,3.2163,5.1529,5.1075,7.5312c2.7292,3.239,3.2955,7.5652,4.4847,11.4836
			c11.5742-0.8494,22.7633-4.3602,33.8167-7.7124c49.6831-16.444,93.3865-46.5121,133.9982-78.8338
			c35.4816-28.4485,68.63-59.6265,101.5746-90.9176c12.5935-12.3443,25.0737-24.8019,37.6785-37.1349
			c17.4631-16.4893,34.281-33.6468,51.3818-50.4872c34.6887-33.7261,69.6267-67.2143,106.6257-98.4149
			c32.2424-27.2481,66.0022-52.9447,102.6616-73.998c4.6433-2.9105,10.9854-6.6025,9.5129-13.0918
			C2320.8174,55.967,2314.4414,62.4223,2307.8613,66.3407z"/>
		<path fill="#BD9C73" stroke="#BD9C73" stroke-width="0.094" d="M2303.739,45.1968c3.0125-2.2537,7.2368-3.7033,10.7703-1.6535
			c0.521,4.983-4.1563,7.8822-7.3501,10.8268c-68.0862,55.3456-144.021,99.8078-219.6157,143.919
			c-77.0105,45.0625-154.8024,89.3322-226.6598,142.4694c-49.921,36.9764-97.09,78.4261-135.7311,127.2825
			c-10.0679-6.2967-19.7056-13.692-31.2799-17.1235c17.4293-32.9446,44.8586-59.298,73.8169-82.186
			c34.7905-27.1122,72.8314-49.6831,111.4501-70.8383c75.3795-41.0081,153.432-76.8406,228.925-117.6335
			c65.2888-35.3682,129.7058-74.032,184.4172-124.723C2296.2871,52.1618,2299.6279,48.2433,2303.739,45.1968z"/>
		<path fill="#563A2F" stroke="#563A2F" stroke-width="0.094" d="M2307.8613,66.3407c6.5801-3.9185,12.9561-10.3738,21.2231-9.3545
			c1.4724,6.4893-4.8696,10.1812-9.5129,13.0918c-36.6594,21.0533-70.4192,46.7499-102.6616,73.998
			c-36.999,31.2006-71.937,64.6888-106.6257,98.4149c-17.1008,16.8404-33.9187,33.9979-51.3818,50.4872
			c-12.6047,12.333-25.085,24.7906-37.6785,37.1349c-32.9446,31.2912-66.093,62.4691-101.5746,90.9176
			c-40.6117,32.3218-84.3151,62.3898-133.9982,78.8338c-11.0533,3.3522-22.2424,6.863-33.8167,7.7124
			c-1.1892-3.9185-1.7555-8.2447-4.4847-11.4836c-1.8912-2.3783-3.6467-4.8698-5.1075-7.5312
			c39.1847-13.7826,76.8633-31.6989,112.4126-53.1938c74.7341-44.9379,141.1556-101.9936,206.071-159.842
			c61.5291-55.1418,121.7104-111.9257,186.218-163.6699C2266.7515,96.0351,2286.9553,80.6896,2307.8613,66.3407z"/>
		<path fill="#DEDEDC" stroke="#DEDEDC" stroke-width="0.094" d="M1662.4004,455.9571c3.4203-1.2797,6.9197-2.6274,10.5549-3.1144
			c3.0918,0.3511,6.1835,0.7588,9.2527,1.3703c12.4575,3.3069,23.8618,9.8415,34.4169,17.1122
			c17.3386,12.1405,30.1812,30.1247,36.7498,50.204c0.2378,2.5255,0.2946,5.085,0.204,7.6331
			c-0.4078,7.1914-4.4622,13.7939-10.204,18.0068c-6.5459,5.3568-15.2549,7.2594-23.5448,7.1688
			c-3.7034,0.0226-7.7012-0.7928-11.0306,1.2571c-31.4044,16.4666-62.605,33.2957-93.9753,49.819
			c-6.6365,3.1597-12.6162,7.6897-19.6604,9.9321c-0.2039-2.5934-0.4644-5.1755-0.7474-7.7463
			c9.6489-6.0816,20.1019-10.7249,30.0681-16.2515c21.5515-11.7668,43.4203-22.9446,65.0398-34.6094
			c6.9989-3.2956,13.4995-7.6671,20.6229-10.6795c5.7079-0.487,11.5176,1.1891,17.2029-0.2718
			c7.8595-1.5062,15.8663-6.5573,18.0068-14.6886c1.7893-6.829-1.8008-13.3976-4.5187-19.4338
			c-11.1666-23.8959-33.8733-40.5324-58.1996-49.3207c-8.4146-2.6841-18.845-0.8154-24.2924,6.6025
			c-4.7224,5.3794-5.7985,12.718-5.47,19.6377c0.6908,4.7565-4.2468,6.9196-7.1573,9.6376
			c-14.179,12.2537-28.6979,24.1111-42.8655,36.3875c-12.854,10.4871-25.1077,21.6989-38.1542,31.9254
			c-2.6726-1.3363-5.3453-2.6274-7.9841-3.9864c6.1495-4.0657,11.4044-9.2979,17.1461-13.8959
			c19.5924-16.6478,39.3433-33.1031,58.8225-49.8869c3.8503-3.6693,8.777-6.308,11.8914-10.6682
			c0.6115-3.7712,0.2037-7.6784,1.2117-11.393C1648.3007,468.0183,1653.7708,459.5585,1662.4004,455.9571z"/>
		<path fill="#C1C1C1" stroke="#C1C1C1" stroke-width="0.094" d="M1658.3459,468.947c5.4474-7.4179,15.8778-9.2866,24.2924-6.6025
			c24.3263,8.7883,47.033,25.4248,58.1996,49.3207c2.7179,6.0362,6.308,12.6048,4.5187,19.4338
			c-2.1405,8.1314-10.1473,13.1824-18.0068,14.6886c-5.6853,1.4609-11.495-0.2151-17.2029,0.2718
			c-7.1234,3.0125-13.624,7.384-20.6229,10.6796c-21.6195,11.6648-43.4883,22.8427-65.0398,34.6094
			c-9.9662,5.5266-20.4192,10.1699-30.0681,16.2515c0.2831,2.5708,0.5436,5.1529,0.7474,7.7463
			c0.6342,18.2447-6.9648,35.8326-17.5652,50.34c-10.3397,14.0997-23.828,25.606-38.29,35.2889
			c-15.957,10.3058-33.2051,18.6184-51.2346,24.5868c-23.8959,7.8143-49.8757,10.2831-74.5303,4.7791
			c-3.0352-0.6003-6.0137-1.4043-8.8223-2.6727c3.488-1.5968,6.9536-3.3069,10.1699-5.4247
			c20.17,5.3567,41.631,3.522,61.6763-1.5856c18.324-4.9037,35.8325-12.6841,52.0953-22.4123
			c18.6072-11.2798,35.8098-25.7759,47.3502-44.4282c9.7281-15.5833,14.8245-35.504,8.0408-53.2165
			c-6.9989-18.9808-25.6514-30.8834-44.417-36.0704c-11.9818-3.3635-24.53-2.197-36.5913,0
			c-2.2876-3.2163-5.7417-5.402-9.796-5.1868c20.5323-6.8856,43.9978-7.0103,63.4656,3.205
			c2.6388,1.359,5.3115,2.6501,7.9841,3.9865c13.0465-10.2266,25.3002-21.4384,38.1542-31.9254
			c14.1676-12.2764,28.6865-24.1337,42.8655-36.3875c2.9105-2.718,7.8481-4.8811,7.1573-9.6376
			C1652.5475,481.665,1653.6235,474.3264,1658.3459,468.947 M1659.1274,474.1452c-1.676,5.1302,0.2264,10.453,0.7249,15.6173
			c-3.1371-1.1212-5.3794,3.9298-2.1292,5.1869c-1.7101-0.2491-2.7633,1.4496-4.009,2.265
			c-28.0183,24.3263-56.6254,48.0069-84.451,72.5484c2.0837,1.4383,3.8391,3.692,6.3986,4.3036
			c28.7883-23.5789,57.3049-47.5314,86.0933-71.1328c1.4949-1.1891,2.8539-2.5482,3.9524-4.1336
			c12.5822,6.8743,23.8167,16.1835,32.9673,27.2368c-6.6365,4.949-13.9865,8.8109-20.9626,13.2277
			c-29.3092,17.9276-58.8451,35.5154-88.0637,53.6016c0.8494,2.9785,2.0385,5.8437,3.4427,8.6183
			c31.4158-16.3987,62.8994-32.6615,94.3152-49.0715c7.418-3.6467,14.5187-7.9615,22.1971-11.0646
			c0.2717,0.3397,0.8267,1.0306,1.0985,1.3703c1.2231-0.4643,2.4802-0.8833,3.7712-1.2684
			c4.8019,2.0952,10.4077,3.2956,15.504,1.4609c5.2775-1.6648,9.8529-5.6965,11.8461-10.8947
			c1.6534-5.6399-1.0419-11.2911-3.1257-16.4327c-2.4916,4.179-3.4768,9.3885-7.6331,12.4349
			c-5.8778,5.7305-14.6094,3.624-21.8688,2.8539c-10.838-14.7339-24.3602-27.7351-40.5325-36.4667
			c-0.5436-6.6931-2.5934-14.3036,1.6422-20.2492c3.3635-4.5187,9.5923-3.4315,14.5073-3.9185
			c-3.205-2.752-7.0895-5.0623-11.4156-5.1416C1667.5419,465.3116,1661.4152,468.5279,1659.1274,474.1452z"/>
		<path fill="#FEFEFE" stroke="#FEFEFE" stroke-width="0.094" d="M1659.1274,474.1452c2.2877-5.6172,8.4144-8.8336,14.2695-9.0487
			c4.3262,0.0793,8.2107,2.3896,11.4156,5.1416c-4.915,0.487-11.1438-0.6002-14.5073,3.9185
			c-4.2356,5.9456-2.1858,13.5561-1.6422,20.2492c-2.9785-1.4949-5.855-3.137-8.8108-4.6433
			C1659.3539,484.5982,1657.4514,479.2754,1659.1274,474.1452z"/>
		<path fill="#5E5B5B" stroke="#5E5B5B" stroke-width="0.094" d="M1657.7231,494.9493c-3.2502-1.2571-1.0079-6.3081,2.1292-5.1869
			c2.9558,1.5062,5.8323,3.1483,8.8108,4.6433c16.1722,8.7316,29.6945,21.7328,40.5325,36.4667
			c2.2197,3.2729,3.9072,6.8743,5.2775,10.5776c-1.291,0.385-2.5481,0.804-3.7712,1.2684
			c-0.2719-0.3397-0.8268-1.0306-1.0985-1.3703c-3.7147-5.0623-6.8177-10.555-10.9287-15.3115
			c-9.1506-11.0533-20.3851-20.3625-32.9673-27.2368C1663.0912,497.3955,1660.4072,496.1611,1657.7231,494.9493z"/>
		<path fill="#FEFEFE" stroke="#FEFEFE" stroke-width="0.094" d="M1653.7141,497.2144c1.2457-0.8154,2.299-2.5142,4.009-2.265
			c2.6841,1.2118,5.368,2.4462,7.9841,3.8505c-1.0985,1.5855-2.4575,2.9445-3.9524,4.1336
			c-28.7883,23.6014-57.3049,47.5539-86.0933,71.1328c-2.5594-0.6116-4.3148-2.8652-6.3986-4.3035
			C1597.0887,545.2213,1625.6958,521.5406,1653.7141,497.2144z"/>
		<path fill="#969593" stroke="#969593" stroke-width="0.094" d="M1731.0643,528.0185c4.1563-3.0464,5.1415-8.256,7.6331-12.4349
			c2.0839,5.1416,4.7792,10.7928,3.1257,16.4327c-1.9932,5.1982-6.5686,9.2299-11.8461,10.8947
			c-5.0963,1.8347-10.7021,0.6342-15.504-1.461c-1.3702-3.7032-3.0577-7.3046-5.2775-10.5776
			C1716.455,531.6426,1725.1865,533.749,1731.0643,528.0185z"/>
		<path fill="#969593" stroke="#969593" stroke-width="0.094" d="M1698.6746,526.0366c4.111,4.7565,7.214,10.2492,10.9287,15.3115
			c-7.6785,3.103-14.7792,7.4179-22.1971,11.0646c-31.4158,16.41-62.8994,32.6728-94.3152,49.0715
			c-1.4043-2.7747-2.5934-5.6398-3.4427-8.6183c29.2186-18.0861,58.7545-35.674,88.0637-53.6016
			C1684.6881,534.8475,1692.0381,530.9857,1698.6746,526.0366z"/>
		<path fill="#75C5F0" stroke="#75C5F0" stroke-width="0.094" d="M1528.1077,578.868c-6.0929-2.4235-12.0386-5.1641-18.256-7.2254
			c-2.1744-0.7927-4.5865-1.3589-6.2515-3.0464c-0.2943-1.3477-0.4756-2.7067-0.5549-4.0657
			c-2.2875-3.2163-5.7418-5.4021-9.796-5.1869c-35.2437,11.4156-65.6628,34.734-101.937,43.4316
			c-22.605,5.7758-47.0217,4.1903-68.5281-4.9604c-3.5447-1.9365-7.5537-1.2344-10.906,0.7362
			c-2.2988-1.88-4.1448-4.2469-6.4891-6.0477c-5.5153-2.5141-13.5448,2.8313-11.4723,9.162
			c2.5028,7.7916,5.7192,15.3568,9.094,22.8087c1.0575,1.833,6.0361,13.6014,6.0361,13.6014
			c13.7373,25.2662,30.4531,49.6151,53.3979,67.418c3.941,3.2843,8.5276,5.7192,12.3895,9.0941
			c0.8468,0.9761,12.0157,6.3876,12.0157,6.3876c5.821,2.5368,11.5629,5.5379,17.871,6.6931
			c3.4882-1.5968,6.9536-3.3069,10.1699-5.4247c1.8687-2.1971,3.7711-4.598,4.3148-7.5085
			c0.7021-3.7939-0.6116-7.5425-1.7327-11.0986c7.5198-2.5594,15.4812-4.111,22.4348-8.0974
			c5.4475-3.1257,9.4113-9.8528,7.5199-16.1609c-1.8573-6.0815-7.6783-9.3998-12.2423-13.2729
			c2.6387-0.0565,5.2887-0.0339,7.939-0.0452c6.4211-1.6874,13.0803-0.6457,19.6262-0.7928
			c6.5573,0.0679,13.2278-0.906,19.6716,0.8494c5.1077-0.3172,10.6682-0.5211,15.0283-3.5336
			c4.7227-4.1902,7.486-11.5063,4.6547-17.5085c-4.6547-10.0001-16.5118-14.5754-20.2266-25.1417
			c6.5006-1.6422,13.4088,0.1925,19.8416-2.0499c8.4485-2.8992,16.9309-5.889,24.8585-10.068
			c4.7904-2.6727,10.1812-6.6932,9.9547-12.82C1537.3036,588.3471,1533.3174,582.526,1528.1077,578.868z M1525.8992,599.2418
			c-6.9875,4.5753-15.1302,6.8969-22.854,9.8754c-8.9242,3.3975-18.4146,5.7417-26.5347,10.872
			c-2.3782,1.2118-1.7667,4.0997-0.7361,6.025c3.7825,7.9162,11.8232,12.4123,16.965,19.2753
			c2.7748,3.5221,2.8312,9.8868-1.6195,12.0725c-3.658,1.2684-7.6105,1.2004-11.4158,1.3704
			c-15.8663,0.1359-31.7328-0.034-47.5991,0.0453c-4.6547,0.1359-9.4338,0.1698-13.9185,1.5968
			c-2.1179,1.5062-0.6343,4.1223,0.9625,5.3567c6.0817,4.9491,14.111,7.4293,19.0941,13.7374
			c2.2876,2.8652,1.0759,7.3047-1.9706,9.128c-9.8302,5.6172-21.8348,5.991-31.5403,11.8461
			c1.7328,3.4087,5.1302,5.7191,6.4666,9.3431c2.0159,5.7305-5.5266,11.1212-10.5549,8.4711
			c-20.5663-7.6897-38.5504-21.2798-53.0919-37.5879c-20.521-23.1031-35.2435-50.9401-45.4927-79.9663
			c8.1086,8.3691,17.701,16.3874,29.5811,18.2673c-4.0884-4.8358-9.8867-8.1314-12.9332-13.8392
			c3.9751,1.0758,8.0635,2.1857,11.5403,4.5073c5.4474,0.4983,10.6342,2.4122,16.059,3.1825
			c23.1144,3.9865,46.9084-0.5322,68.4714-9.1733c27.2593-10.487,51.8462-27.033,79.6038-36.308
			c1.2344,2.5254,2.446,5.0962,3.1823,7.8369c-8.0748,2.5367-15.6965,6.308-23.4315,9.7056
			c-26.5574,12.1744-53.4884,24.5867-82.4692,29.6603c-12.752,2.5142-25.8098,2.7405-38.7429,2.0951
			c-5.8212-0.4644-11.6763-1.0986-17.2708-2.8201c0.0339,0.3284,0.1018,0.9853,0.1359,1.3137
			c13.3635,3.8052,27.0555,6.5798,40.9061,7.7237c19.9434,1.6534,38.5845-7.0555,56.6367-14.2583
			c23.3523-9.8075,46.5574-20.5437,71.4044-26.0477c3.4429-0.7361,7.1122-1.7554,10.5551-0.4077
			c4.5979,1.5741,9.5358,3.6806,12.2423,7.9728C1529.0928,593.0244,1529.24,597.4977,1525.8992,599.2418z"/>
		<path fill="#1F1A17" stroke="#1F1A17" stroke-width="0.094" d="M1503.0453,564.5306c12.0613-2.1971,24.6095-3.3635,36.5913,0
			c18.7656,5.1869,37.4181,17.0895,44.417,36.0703c6.7837,17.7124,1.6874,37.6332-8.0408,53.2165
			c-11.5404,18.6523-28.743,33.1485-47.3502,44.4282c-16.2628,9.7283-33.7714,17.5086-52.0953,22.4123
			c-20.0453,5.1076-41.5062,6.9423-61.6763,1.5855c1.8687-2.197,3.7712-4.598,4.3149-7.5085
			c0.7021-3.7939-0.6116-7.5425-1.7328-11.0986c7.5199-2.5593,15.4813-4.1108,22.4349-8.0975
			c5.4474-3.1257,9.4111-9.8528,7.5198-16.1609c-1.8573-6.0815-7.6783-9.3998-12.2423-13.2729
			c2.6387-0.0566,5.2887-0.034,7.9388-0.0453c13.0577,1.0646,26.2288,0.8947,39.298,0.0566
			c5.1077-0.3171,10.6683-0.521,15.0284-3.5336c4.7225-4.1903,7.4858-11.5062,4.6545-17.5085
			c-4.6545-10.0001-16.5118-14.5754-20.2266-25.1417c6.5006-1.6421,13.4088,0.1926,19.8416-2.0498
			c8.4485-2.8992,16.9309-5.889,24.8585-10.068c4.7904-2.6727,10.1812-6.6931,9.9547-12.82
			c0.77-6.6478-3.2163-12.4688-8.4259-16.1269c10.2266-1.3477,20.521-0.3284,30.7816-0.6002
			c-5.9116-6.2175-14.3829-9.3885-22.8201-9.9434c-8.8448-0.5549-17.803,0.5549-26.2175,3.3182
			c-2.1743-0.7928-4.5865-1.3591-6.2515-3.0464C1503.3059,567.2486,1503.1246,565.8896,1503.0453,564.5306z"/>
		<path fill="#0491DA" stroke="#0491DA" stroke-width="0.094" d="M1414.7777,603.6473c27.2594-10.487,51.8462-27.033,79.604-36.3082
			c1.2344,2.5255,2.4462,5.0963,3.1823,7.8369c-8.0747,2.5369-15.6965,6.3081-23.4315,9.7056
			c-26.5574,12.1744-53.4884,24.5867-82.4692,29.6603c-12.752,2.5141-25.8098,2.7407-38.743,2.0951
			c-5.821-0.4643-11.6761-1.0985-17.2708-2.8201c-1.7893-1.4268-3.5674-2.8539-5.4021-4.179
			c5.4474,0.4983,10.6343,2.4122,16.059,3.1825C1369.4208,616.8071,1393.2147,612.2884,1414.7777,603.6473z"/>
		<path fill="#C2C2C2" stroke="#C2C2C2" stroke-width="0.094" d="M1509.8517,571.6427c8.4146-2.7633,17.3727-3.8732,26.2175-3.3182
			c8.4371,0.5549,16.9084,3.726,22.8201,9.9434c-10.2606,0.2718-20.5551-0.7474-30.7816,0.6003
			C1522.0148,576.4445,1516.0691,573.7039,1509.8517,571.6427z"/>
		<path fill="#0093DD" stroke="#0093DD" stroke-width="0.094" d="M1504.7327,582.5487c3.4429-0.7361,7.1122-1.7554,10.5551-0.4077
			c4.5979,1.5742,9.5358,3.6807,12.2423,7.9728c1.5629,2.9105,1.7102,7.3839-1.6307,9.128
			c-6.9875,4.5753-15.1302,6.897-22.854,9.8754c-8.9242,3.3975-18.4146,5.7418-26.5345,10.872
			c-2.3783,1.2118-1.7668,4.0997-0.7362,6.025c3.7826,7.9162,11.8234,12.4123,16.965,19.2753
			c2.7748,3.5221,2.8313,9.8868-1.6194,12.0725c-3.6581,1.2684-7.6106,1.2004-11.4158,1.3704
			c-15.8665,0.1359-31.7329-0.034-47.5994,0.0453c-4.6545,0.1359-9.4337,0.1699-13.9183,1.5968
			c-2.1178,1.5062-0.6343,4.1223,0.9625,5.3568c6.0817,4.949,14.1111,7.4292,19.0941,13.7373
			c2.2877,2.8652,1.0759,7.3047-1.9706,9.128c-9.8302,5.6172-21.8347,5.991-31.5403,11.8461
			c1.7328,3.4087,5.1302,5.7191,6.4666,9.3431c2.0159,5.7305-5.5266,11.1211-10.5549,8.4711
			c-20.5663-7.6897-38.5505-21.2798-53.0919-37.5879c-20.5211-23.1031-35.2438-50.9401-45.4928-79.9663
			c8.1088,8.3693,17.7012,16.3873,29.5812,18.2673c-4.0884-4.8358-9.8868-8.1313-12.9332-13.8392
			c3.9751,1.0759,8.0634,2.1857,11.5402,4.5073c1.8347,1.325,3.6128,2.7521,5.4021,4.179c0.0341,0.3284,0.1021,0.9854,0.136,1.3137
			c13.3635,3.8052,27.0555,6.5798,40.9061,7.7237c19.9435,1.6535,38.5845-7.0555,56.6367-14.2583
			C1456.6805,598.7889,1479.8856,588.0527,1504.7327,582.5487z"/>
		<path fill="#96D4F3" stroke="#96D4F3" stroke-width="0.094" d="M1443.1244,666.0598c6.4213-1.6874,13.0804-0.6455,19.6263-0.7927
			c6.5573,0.0679,13.2278-0.906,19.6716,0.8494C1469.3531,666.9545,1456.1821,667.1243,1443.1244,666.0598z"/>
	</g>
</g>
</svg>
